<svg xmlns="http://www.w3.org/2000/svg" viewBox="0 0 100 100" width="100" height="100">
  <!-- Background circle -->
  <circle cx="50" cy="50" r="50" fill="#0f172a"/>
  <!-- Trophy cup body -->
  <rect x="39" y="32" width="22" height="18" rx="3" fill="#f59e0b"/>
  <!-- Trophy handles -->
  <path d="M39 38 Q30 38 30 46 Q30 52 39 50" stroke="#f59e0b" stroke-width="3" fill="none" stroke-linecap="round"/>
  <path d="M61 38 Q70 38 70 46 Q70 52 61 50" stroke="#f59e0b" stroke-width="3" fill="none" stroke-linecap="round"/>
  <!-- Trophy stem -->
  <rect x="47" y="50" width="6" height="8" fill="#f59e0b"/>
  <!-- Trophy base -->
  <rect x="38" y="58" width="24" height="5" rx="2" fill="#f59e0b"/>
  <!-- Star on trophy -->
  <polygon points="50,35 51.5,39 55.5,39 52.5,41.5 53.7,45.5 50,43 46.3,45.5 47.5,41.5 44.5,39 48.5,39" fill="#0f172a" opacity="0.7"/>
  <!-- NWR text -->
  <text x="50" y="76" text-anchor="middle" font-family="Arial, sans-serif" font-size="10" font-weight="bold" fill="#f59e0b" letter-spacing="2">NWR</text>
</svg>
